<svg width="45" height="50" viewBox="0 0 45 50" fill="none" xmlns="http://www.w3.org/2000/svg">
<path d="M22.4409 0C9.98824 0.0644382 -0.0641302 10.1974 0.000308076 22.6662C0.0486368 33.1857 7.36238 42.2715 17.6081 44.559L13.6773 46.9594C12.9846 47.5071 12.8557 48.522 13.4035 49.2147C13.8545 49.7785 14.6117 49.988 15.2883 49.7141L23.0209 44.994C23.3108 44.8812 23.5686 44.6718 23.7458 44.4141C23.8425 44.2691 23.923 44.108 23.9713 43.9308C23.9713 43.9308 23.9713 43.8502 23.9713 43.8019C24.0036 43.7052 24.0358 43.5925 24.0519 43.4958C24.0519 43.4958 24.0519 43.3992 24.0519 43.3508C24.0036 43.0931 23.9391 42.8514 23.8425 42.6098L19.0096 34.555C18.6713 33.7334 17.7208 33.3468 16.8992 33.6851C16.0777 34.0234 15.691 34.9739 16.0293 35.7954C16.0938 35.9404 16.1582 36.0693 16.2549 36.1821L19.4768 41.5305C8.94112 39.8389 1.75625 29.9316 3.43164 19.3959C5.10704 8.86026 15.0305 1.67539 25.5662 3.35079C36.1018 5.02618 43.2867 14.9497 41.6113 25.4853C41.1925 28.1112 40.242 30.6243 38.8082 32.8635C38.3733 33.6368 38.631 34.6194 39.4043 35.0544C40.1131 35.4571 41.0314 35.2638 41.5146 34.6033C48.1679 24.0677 45.0104 10.1329 34.4748 3.49577C30.8823 1.20822 26.71 0 22.4409 0Z" fill="white"/>
</svg>
