<svg width="38" height="39" viewBox="0 0 38 39" fill="none" xmlns="http://www.w3.org/2000/svg">
<path d="M29.4141 35.1854L24.2951 31.2439C23.6258 30.7233 22.6466 31.0456 22.4111 31.8636L20.5767 38.061C20.2421 39.2137 18.606 39.2137 18.2713 38.061L16.4493 31.8636C16.2138 31.058 15.2346 30.7357 14.5653 31.2439L9.4339 35.1854C8.47951 35.9167 7.16568 34.9623 7.5623 33.8344L9.73137 27.7362C10.0165 26.9429 9.40911 26.1125 8.56628 26.1373L2.09625 26.3108C0.893969 26.348 0.398183 24.7987 1.38976 24.1169L6.71947 20.4605C7.41357 19.9895 7.41357 18.9484 6.71947 18.4774L1.38976 14.8209C0.398183 14.1392 0.906362 12.5899 2.10865 12.6271L8.57867 12.813C9.42151 12.8378 10.0288 12.0073 9.74377 11.2141L7.5747 5.09111C7.17807 3.9632 8.49191 3.00881 9.4463 3.74009L14.5653 7.6816C15.2346 8.20218 16.2138 7.87992 16.4493 7.07426L18.2837 0.864529C18.6184 -0.288176 20.2545 -0.288176 20.5891 0.864529L22.4111 7.07426C22.6466 7.87992 23.6258 8.20218 24.2951 7.6816L29.4265 3.74009C30.3685 3.00881 31.6947 3.9632 31.2981 5.09111L29.129 11.1893C28.844 11.9826 29.4513 12.8254 30.2941 12.8006L36.7642 12.6271C37.9664 12.5899 38.4622 14.1392 37.4707 14.8209L32.1286 18.4774C31.4345 18.9484 31.4345 19.9771 32.1286 20.4605L37.4583 24.1169C38.4498 24.7987 37.9417 26.348 36.7518 26.3108L30.2817 26.1249C29.4389 26.1001 28.8316 26.9305 29.1166 27.7238L31.2857 33.822C31.6823 34.9499 30.3561 35.9167 29.4141 35.1854Z" fill="#1B1B1B"/>
</svg>
