<svg width="60" height="62" viewBox="0 0 60 62" fill="none" xmlns="http://www.w3.org/2000/svg">
<path d="M45.7368 55.8191L37.6137 49.5645C36.5516 48.7384 34.9978 49.2498 34.6241 50.548L31.7131 60.3822C31.1821 62.2114 28.5858 62.2114 28.0548 60.3822L25.1635 50.548C24.7898 49.2695 23.236 48.7581 22.1739 49.5645L14.0311 55.8191C12.5166 56.9796 10.4318 55.4651 11.0612 53.6752L14.5032 43.9983C14.9555 42.7396 13.9918 41.4218 12.6543 41.4611L2.38737 41.7365C0.479519 41.7955 -0.307221 39.3369 1.26626 38.2551L9.72372 32.4529C10.8252 31.7055 10.8252 30.0534 9.72372 29.306L1.26626 23.5037C-0.307221 22.422 0.499184 19.9634 2.40703 20.0224L12.674 20.3174C14.0115 20.3568 14.9752 19.039 14.5228 17.7802L11.0808 8.06395C10.4515 6.27412 12.5363 4.75964 14.0508 5.92008L22.1739 12.1747C23.236 13.0007 24.7898 12.4894 25.1635 11.2109L28.0745 1.35699C28.6055 -0.472186 31.2017 -0.472186 31.7328 1.35699L34.6241 11.2109C34.9978 12.4894 36.5516 13.0007 37.6137 12.1747L45.7564 5.92008C47.2513 4.75964 49.3558 6.27412 48.7264 8.06395L45.2844 17.7409C44.832 18.9996 45.7958 20.3371 47.1332 20.2978L57.4002 20.0224C59.3081 19.9634 60.0948 22.422 58.5213 23.5037L50.0442 29.306C48.9427 30.0534 48.9427 31.6858 50.0442 32.4529L58.5016 38.2551C60.0751 39.3369 59.2687 41.7955 57.3805 41.7365L47.1136 41.4414C45.7761 41.4021 44.8124 42.7199 45.2647 43.9787L48.7067 53.6556C49.3361 55.4454 47.2316 56.9796 45.7368 55.8191Z" fill="white"/>
</svg>
